# AST/ASF file generated using VICON BodyLanguage
# -----------------------------------------------
:version 1.10
:name VICON
:units
  mass 1.0
  length 0.45
  angle deg
:documentation
   .ast/.asf automatically generated from VICON data using
   VICON BodyBuilder and BodyLanguage model FoxedUp or BRILLIANT.MOD
:root
   order TX TY TZ RX RY RZ
   axis XYZ
   position 0 0 0  
   orientation 0 0 0 
:bonedata
  begin
     id 1 
     name lhipjoint
     direction 0.627457 -0.725269 0.283342 
     length 2.53237 
     axis 0 0 0  XYZ
  end
  begin
     id 2 
     name lfemur
     direction 0.34202 -0.939693 0  
     length 7.32496  
     axis 0 0 20  XYZ
    dof rx ry rz
    limits (-160.0 20.0)
           (-70.0 70.0)
           (-60.0 70.0)
  end
  begin
     id 3 
     name ltibia
     direction 0.34202 -0.939693 0   
     length 7.69674   
     axis 0 0 20   XYZ
    dof rx
    limits (-10.0 170.0)
  end
  begin
     id 4 
     name lfoot
     direction 0.127289 -0.349722 0.928166   
     length 1.8612   
     axis -90 7.62852e-016 20   XYZ
    dof rx rz
    limits (-45.0 90.0)
           (-70.0 20.0)
  end
  begin
     id 5 
     name ltoes
     direction 1.53561e-011 -4.21864e-011 1   
     length 0.925608   
     axis -90 7.62852e-016 20   XYZ
    dof rx
    limits (-90.0 20.0)
  end
  begin
     id 6 
     name rhipjoint
     direction -0.609094 -0.738725 0.288599   
     length 2.48624  
     axis 0 0 0  XYZ 
  end
  begin
     id 7 
     name rfemur
     direction -0.34202 -0.939693 0   
     length 7.44259   
     axis 0 0 -20   XYZ
    dof rx ry rz
    limits (-160.0 20.0)
           (-70.0 70.0)
           (-70.0 60.0)
  end
  begin
     id 8 
     name rtibia
     direction -0.34202 -0.939693 0   
     length 7.7781   
     axis 0 0 -20   XYZ
    dof rx
    limits (-10.0 170.0)
 end
 begin
     id 9 
     name rfoot
     direction -0.107015 -0.294021 0.949789   
     length 2.14741  
     axis -90 -7.62852e-016 -20   XYZ
    dof rx rz
    limits (-45.0 90.0)
           (-20.0 70.0)
  end
  begin
     id 10 
     name rtoes
     direction -1.53497e-011 -4.21924e-011 1   
     length 1.0706   
     axis -90 -7.62852e-016 -20   XYZ
    dof rx
    limits (-90.0 20.0)
  end
  begin
     id 11 
     name lowerback
     direction -0.0142066 0.998112 -0.0597545   
     length 1.86627   
     axis 0 0 0   XYZ
    dof rx ry rz
    limits (-20.0 45.0)
           (-30.0 30.0)
           (-30.0 30.0)
  end
  begin
     id 12 
     name upperback
     direction 0.00547294 0.999744 0.0219437   
     length 1.86272   
     axis 0 0 0   XYZ
    dof rx ry rz
    limits (-20.0 45.0)
           (-30.0 30.0)
           (-30.0 30.0)
  end
  begin
     id 13 
     name thorax
     direction 0.0116162 0.998704 0.0495538   
     length 1.8703   
     axis 0 0 0   XYZ
    dof rx ry rz
    limits (-20.0 45.0)
           (-30.0 30.0)
           (-30.0 30.0)
  end
  begin
     id 14 
     name lowerneck
     direction -0.0106574 0.998739 0.0490586   
     length 1.8074   
     axis 0 0 0   XYZ
    dof rx ry rz
    limits (-20.0 45.0)
           (-30.0 30.0)
           (-30.0 30.0)
  end
  begin
     id 15 
     name upperneck
     direction 0.030527 0.976587 -0.212944   
     length 1.80681   
     axis 0 0 0   XYZ
    dof rx ry rz
    limits (-20.0 45.0)
           (-30.0 30.0)
           (-30.0 30.0)
  end
  begin
     id 16
     name head
     direction 0.00869225 0.997035 -0.0764531  
     length 1.8313  
     axis 0 0 0   XYZ
    dof rx ry rz
    limits (-20.0 45.0)
           (-30.0 30.0)
           (-30.0 30.0)
  end
  begin
     id 17 
     name lclavicle
     direction 0.915958 0.399447 0.0382386  
     length 3.78965  
     axis 0 0 0   XYZ
    dof ry rz
    limits (-20.0 10.0)
           (0.0 20.0)
  end
  begin
     id 18 
     name lhumerus
     direction 1 -4.48967e-011 3.19303e-027   
     length 4.78095   
     axis -180 -30 -90   XYZ
    dof rx ry rz
    limits (-60.0 90.0)
           (-90.0 90.0)
           (-90.0 90.0)
  end
  begin
     id 19
     name lradius
     direction 1 -4.48967e-011 -3.77974e-027   
     length 3.58615   
     axis -180 -30 -90   XYZ
    dof rx
    limits (-10.0 170.0)
  end
  begin
     id 20
     name lwrist
     direction 1 -4.48927e-011 1.2807e-027   
     length 1.79307   
     axis 1.91374e-015 90 90   XYZ
    dof ry
    limits (-180.0 0.0)
 end
  begin
     id 21 
     name lhand
     direction 1 -4.49036e-011 2.5614e-027   
     length 0.659812   
     axis -1.63439e-015 90 90   XYZ
    dof rx rz
    limits (-90.0 90.0)
           (-45.0 45.0)
  end
  begin
     id 22 
     name lfingers
     direction 1 -4.49052e-011 5.1228e-027   
     length 0.531957   
     axis -3.26879e-015 90 90   XYZ
    dof rx
    limits (0.0 90.0)
  end
  begin
     id 23
     name lthumb
     direction 0.707107 -6.35012e-011 0.707107   
     length 0.763787   
     axis -90 45 2.85299e-015   XYZ
    dof rx rz
    limits (-45.0 45.0)
           (-45.0 45.0)
  end
  begin
     id 24 
     name rclavicle
     direction -0.895351 0.435135 0.0948887   
     length 3.70497  
     axis 0 0 0   XYZ 
    dof ry rz
    limits (-10.0 20.0)
           (-20.0 0.0)
  end
  begin
     id 25 
     name rhumerus
     direction -1 -4.48971e-011 2.38946e-027  
     length 4.48913   
     axis -180 30 90   XYZ
    dof rx ry rz
    limits (-90.0 60.0)
           (-90.0 90.0)
           (-90.0 90.0)
  end
  begin
     id 26 
     name rradius
     direction -1 -4.4895e-011 4.38668e-027   
     length 3.7051   
     axis -180 30 90   XYZ
    dof rx
    limits (-10.0 170.0)
  end
  begin
     id 27 
     name rwrist
     direction -1 -4.49007e-011 1.2807e-027   
     length 1.85255   
     axis 1.91374e-015 -90 -90   XYZ
    dof ry
    limits (-180.0 0.0)
  end
  begin
     id 28
     name rhand
     direction -1 -4.48851e-011 2.5614e-027   
     length 0.449136   
     axis -1.63439e-015 -90 -90   XYZ
    dof rx rz
    limits (-90.0 90.0)
           (-45.0 45.0)
  end
  begin
     id 29
     name rfingers
     direction -1 -4.49128e-011 5.1228e-027   
     length 0.362105   
     axis -3.26879e-015 -90 -90   XYZ
    dof rx
    limits (0.0 90.0)
  end
  begin
     id 30
     name rthumb
     direction -0.707107 -6.34851e-011 0.707107   
     length 0.519912   
     axis -90 -45 -2.85299e-015   XYZ
    dof rx rz
    limits (-45.0 45.0)
           (-45.0 45.0)
  end
:hierarchy
  begin
    root lhipjoint rhipjoint lowerback
    lhipjoint lfemur
    lfemur ltibia
    ltibia lfoot
    lfoot ltoes
    rhipjoint rfemur
    rfemur rtibia
    rtibia rfoot
    rfoot rtoes
    lowerback upperback
    upperback thorax
    thorax lowerneck lclavicle rclavicle
    lowerneck upperneck
    upperneck head
    lclavicle lhumerus
    lhumerus lradius
    lradius lwrist
    lwrist lhand lthumb
    lhand lfingers
    rclavicle rhumerus
    rhumerus rradius
    rradius rwrist
    rwrist rhand rthumb
    rhand rfingers
  end

#!OML:ASF I:\Actors\actors\Patient Classification 2\Patient 1\Session 1\actor1.ASF
:FULLY-SPECIFIED
:DEGREES
34
root -0.776344 18.6487 6.21363 0.759557 -4.09558 -4.23707
lowerback 1.64678 1.08958 1.32973
upperback -0.990526 1.50219 0.879685
thorax -1.92748 0.738674 0.10729
lowerneck -11.2052 -0.251973 1.72866
upperneck 22.7197 -0.726768 0.0218004
head 8.94802 -0.194098 -0.364352
rclavicle -6.19649e-015 -6.36111e-015
rhumerus -45.2041 1.4703 -90.3682
rradius 40.2179
rwrist 17.1688
rhand -7.20928 -27.5193
rfingers 7.12502
rthumb 18.6695 -56.6434
lclavicle -6.19649e-015 -6.36111e-015
lhumerus -40.6131 -2.31287 93.4214
lradius 37.3644
lwrist -17.1844
lhand 1.4061 -24.3741
lfingers 7.12502
lthumb 26.9365 3.72607
rfemur 0 0 0
rtibia 0
rfoot 0 0
rtoes 0
lfemur -2.83826 -8.66943 -10.8563
ltibia 22.9023
lfoot -25.0486 14.5315
ltoes -55.7773
35
root -0.776066 18.6487 6.21547 0.763563 -4.11256 -4.2177
lowerback 1.63582 1.08658 1.31605
upperback -0.992435 1.49758 0.875412
thorax -1.92355 0.736542 0.110921
lowerneck -11.192 -0.253406 1.70942
upperneck 22.7118 -0.728529 0.0389027
head 8.94298 -0.194879 -0.355426
rclavicle -5.76165e-015 -7.55382e-015
rhumerus -45.2036 1.47231 -90.3654
rradius 40.2062
rwrist 17.1691
rhand -7.17606 -27.5785
rfingers 7.12502
rthumb 18.7015 -56.6995
lclavicle -5.76165e-015 -7.55382e-015
lhumerus -40.6061 -2.29189 93.4094
lradius 37.3433
lwrist -17.2086
lhand 1.39356 -24.4342
lfingers 7.12502
lthumb 26.9245 3.66786
rfemur 0 0 0
rtibia 0
rfoot 0 0
rtoes 0
lfemur -2.8333 -8.68335 -10.8861
ltibia 22.9009
lfoot -25.0722 14.5762
ltoes -55.806
36
root -0.776073 18.6489 6.21683 0.753792 -4.12443 -4.2231
lowerback 1.66547 1.08897 1.31263
upperback -0.998755 1.50149 0.880772
thorax -1.94689 0.73843 0.117496
lowerneck -11.2164 -0.261125 1.69788
upperneck 22.7331 -0.73914 0.0450624
head 8.95485 -0.199998 -0.352683
rclavicle 1.99716e-015 2.78299e-015
rhumerus -45.2048 1.4658 -90.353
rradius 40.2034
rwrist 17.2102
rhand -7.09792 -27.7473
rfingers 7.12502
rthumb 18.7766 -56.8611
lclavicle 1.99716e-015 2.78299e-015
lhumerus -40.6075 -2.37174 93.4417
lradius 37.3256
lwrist -17.1612
lhand 1.38088 -24.4458
lfingers 7.12502
lthumb 26.9123 3.65809
rfemur 0 0 0
rtibia 0
rfoot 0 0
rtoes 0
lfemur -2.8225 -8.66719 -10.8843
ltibia 22.9053
lfoot -25.0417 14.6255
ltoes -55.8704
37
root -0.775945 18.6492 6.21755 0.752966 -4.12958 -4.24374
lowerback 1.72066 1.08461 1.34583
upperback -1.0288 1.49804 0.875436
thorax -2.00779 0.735798 0.0920537
lowerneck -11.2414 -0.26123 1.67846
upperneck 22.7823 -0.74258 0.0716527
head 8.9767 -0.20006 -0.340969
rclavicle -1.05418e-014 -2.78299e-015
rhumerus -45.2118 1.42607 -90.3369
rradius 40.174
rwrist 17.3788
rhand -6.97362 -27.7357
rfingers 7.12502
rthumb 18.8962 -56.8379
lclavicle -1.05418e-014 -2.78299e-015
lhumerus -40.6507 -2.45346 93.4476
lradius 37.325
lwrist -17.0951
lhand 1.36399 -24.4253
lfingers 7.12502
lthumb 26.8962 3.68117
rfemur 0 0 0
rtibia 0
rfoot 0 0
rtoes 0
lfemur -2.82085 -8.70213 -10.8694
ltibia 22.9114
lfoot -25.0422 14.6862
ltoes -55.8599
38
root -0.776004 18.6487 6.21803 0.758147 -4.12076 -4.2616
lowerback 1.75921 1.07646 1.3887
upperback -1.05395 1.48923 0.861148
thorax -2.05389 0.730363 0.0526324
lowerneck -11.2321 -0.260101 1.69335
upperneck 22.7901 -0.747776 0.0871718
head 8.97767 -0.199574 -0.338774
rclavicle 1.25017e-014 6.36111e-015
rhumerus -45.1998 1.37504 -90.3264
rradius 40.1535
rwrist 17.4562
rhand -6.81788 -27.685
rfingers 7.12502
rthumb 19.046 -56.7724
lclavicle 1.25017e-014 6.36111e-015
lhumerus -40.6957 -2.50338 93.4259
lradius 37.3477
lwrist -17.0976
lhand 1.32655 -24.3531
lfingers 7.12502
lthumb 26.8604 3.75881
rfemur 0 0 0
rtibia 0
rfoot 0 0
rtoes 0
lfemur -2.8225 -8.76645 -10.8564
ltibia 22.9143
lfoot -25.1054 14.6999
ltoes -55.8431
39
root -0.775752 18.6483 6.21896 0.766799 -4.11435 -4.25715
lowerback 1.77208 1.0765 1.39433
upperback -1.07024 1.48978 0.851302
thorax -2.07745 0.730297 0.0389166
lowerneck -11.2087 -0.261945 1.7197
upperneck 22.7672 -0.758971 0.103043
head 8.96536 -0.201123 -0.338912
rclavicle 6.55679e-015 1.59028e-015
rhumerus -45.204 1.33132 -90.3113
rradius 40.1716
rwrist 17.3929
rhand -6.71635 -27.7997
rfingers 7.12502
rthumb 19.1436 -56.8775
lclavicle 6.55679e-015 1.59028e-015
lhumerus -40.7278 -2.54832 93.4261
lradius 37.3776
lwrist -17.1455
lhand 1.30857 -24.301
lfingers 7.12502
lthumb 26.8432 3.81361
rfemur 0 0 0
rtibia 0
rfoot 0 0
rtoes 0
lfemur -2.82591 -8.79865 -10.8664
ltibia 22.9157
lfoot -25.1396 14.6886
ltoes -55.819
40
root -0.775402 18.6484 6.22067 0.767942 -4.12526 -4.2373
lowerback 1.77873 1.0819 1.36989
upperback -1.08783 1.49669 0.847935
thorax -2.09971 0.733891 0.0485491
lowerneck -11.1828 -0.266941 1.72185
upperneck 22.754 -0.76925 0.117845
head 8.95598 -0.204354 -0.335248
rclavicle 1.83255e-015 -4.37326e-015
rhumerus -45.2467 1.32285 -90.3057
rradius 40.1989
rwrist 17.3339
rhand -6.69844 -27.9779
rfingers 7.12502
rthumb 19.1608 -57.054
lclavicle 1.83255e-015 -4.37326e-015
lhumerus -40.766 -2.5591 93.4295
lradius 37.4038
lwrist -17.1765
lhand 1.3503 -24.3146
lfingers 7.12502
lthumb 26.8831 3.79385
rfemur 0 0 0
rtibia 0
rfoot 0 0
rtoes 0
lfemur -2.81337 -8.85432 -10.9041
ltibia 22.919
lfoot -25.1642 14.7265
ltoes -55.7367
41
root -0.775569 18.6482 6.2219 0.755479 -4.13875 -4.24473
lowerback 1.79986 1.08457 1.36614
upperback -1.09503 1.50093 0.859276
thorax -2.11934 0.736014 0.0615858
lowerneck -11.196 -0.262347 1.75221
upperneck 22.752 -0.753602 0.0510323
head 8.9574 -0.201473 -0.361412
rclavicle -1.67103e-015 3.57812e-015
rhumerus -45.2598 1.35753 -90.3075
rradius 40.1971
rwrist 17.2923
rhand -6.71412 -28.1037
rfingers 7.12502
rthumb 19.1457 -57.1814
lclavicle -1.67103e-015 3.57812e-015
lhumerus -40.7747 -2.48384 93.4094
lradius 37.3872
lwrist -17.2556
lhand 1.39671 -24.3668
lfingers 7.12502
lthumb 26.9275 3.73475
rfemur 0 0 0
rtibia 0
rfoot 0 0
rtoes 0
lfemur -2.79785 -8.75676 -10.8847
ltibia 22.9246
lfoot -25.1218 14.6567
ltoes -55.7987
42
root -0.775483 18.6486 6.22233 0.762601 -4.14718 -4.26201
lowerback 1.81116 1.0848 1.37372
upperback -1.09475 1.50199 0.875292
thorax -2.12564 0.736516 0.0734841
lowerneck -11.2553 -0.245995 1.83136
upperneck 22.7408 -0.716345 -0.0846334
head 8.96393 -0.191572 -0.416967
rclavicle 1.81888e-014 5.56597e-015
rhumerus -45.221 1.37477 -90.2874
rradius 40.1822
rwrist 17.2844
rhand -6.71671 -28.1308
rfingers 7.12502
rthumb 19.1433 -57.2087
lclavicle 1.81888e-014 5.56597e-015
lhumerus -40.746 -2.38515 93.3849
lradius 37.3375
lwrist -17.3674
lhand 1.35703 -24.4665
lfingers 7.12502
lthumb 26.8895 3.64094
rfemur 0 0 0
rtibia 0
rfoot 0 0
rtoes 0
lfemur -2.81352 -8.62525 -10.8433
ltibia 22.9326
lfoot -25.0614 14.5738
ltoes -55.9132
